<svg width="33" height="29" viewBox="0 0 33 29" fill="none" xmlns="http://www.w3.org/2000/svg">
<g id="Vector" filter="url(#filter0_d_209_258)">
<path d="M27 15.2396C26.9979 17.2971 26.168 19.2698 24.6926 20.7247C23.2171 22.1796 21.2166 22.9979 19.13 23H8.94524C8.5769 23 8.22364 22.8557 7.96319 22.5989C7.70273 22.3421 7.55641 21.9937 7.55641 21.6305C7.55641 21.2673 7.70273 20.919 7.96319 20.6621C8.22364 20.4053 8.5769 20.261 8.94524 20.261H19.13C20.4806 20.261 21.7758 19.732 22.7308 18.7903C23.6858 17.8486 24.2223 16.5714 24.2223 15.2396C24.2223 13.9078 23.6858 12.6306 22.7308 11.6889C21.7758 10.7472 20.4806 10.2181 19.13 10.2181H6.74626L9.9313 13.3577C10.1922 13.615 10.3388 13.9639 10.3388 14.3277C10.3388 14.6916 10.1922 15.0405 9.9313 15.2978C9.6704 15.5551 9.31653 15.6996 8.94755 15.6996C8.57857 15.6996 8.2247 15.5551 7.9638 15.2978L2.40848 9.81985C2.27901 9.69262 2.17628 9.54144 2.10618 9.37498C2.03608 9.20851 2 9.03004 2 8.8498C2 8.66956 2.03608 8.49109 2.10618 8.32462C2.17628 8.15816 2.27901 8.00698 2.40848 7.87975L7.9638 2.40181C8.2247 2.14453 8.57857 2 8.94755 2C9.31653 2 9.6704 2.14453 9.9313 2.40181C10.1922 2.65908 10.3388 3.00802 10.3388 3.37186C10.3388 3.7357 10.1922 4.08464 9.9313 4.34191L6.74626 7.47917H19.13C21.2165 7.48159 23.2168 8.29998 24.6922 9.75481C26.1676 11.2097 26.9976 13.1821 27 15.2396Z" fill="#E9E0F5"/>
</g>
<defs>
<filter id="filter0_d_209_258" x="0" y="0" width="33" height="29" filterUnits="userSpaceOnUse" color-interpolation-filters="sRGB">
<feFlood flood-opacity="0" result="BackgroundImageFix"/>
<feColorMatrix in="SourceAlpha" type="matrix" values="0 0 0 0 0 0 0 0 0 0 0 0 0 0 0 0 0 0 127 0" result="hardAlpha"/>
<feOffset dx="2" dy="2"/>
<feGaussianBlur stdDeviation="2"/>
<feComposite in2="hardAlpha" operator="out"/>
<feColorMatrix type="matrix" values="0 0 0 0 0.64123 0 0 0 0 0.415903 0 0 0 0 0.941667 0 0 0 0.25 0"/>
<feBlend mode="normal" in2="BackgroundImageFix" result="effect1_dropShadow_209_258"/>
<feBlend mode="normal" in="SourceGraphic" in2="effect1_dropShadow_209_258" result="shape"/>
</filter>
</defs>
</svg>
