<svg width="22" height="18" viewBox="0 0 22 18" fill="none" xmlns="http://www.w3.org/2000/svg">
<path id="Vector" d="M22 17.25C22 17.4489 21.9227 17.6397 21.7852 17.7803C21.6477 17.921 21.4612 18 21.2667 18H0.733333C0.538841 18 0.352315 17.921 0.214788 17.7803C0.0772617 17.6397 0 17.4489 0 17.25C0 17.0511 0.0772617 16.8604 0.214788 16.7197C0.352315 16.5791 0.538841 16.5 0.733333 16.5H21.2667C21.4612 16.5 21.6477 16.5791 21.7852 16.7197C21.9227 16.8604 22 17.0511 22 17.25ZM0.760833 6.95466C0.717216 6.79738 0.725045 6.62984 0.783127 6.47753C0.84121 6.32522 0.946364 6.19649 1.08258 6.11094L10.6159 0.111093C10.7314 0.0384557 10.8644 0 11 0C11.1356 0 11.2686 0.0384557 11.3841 0.111093L20.9174 6.11094C21.0537 6.19638 21.1589 6.32502 21.2171 6.47727C21.2753 6.62952 21.2832 6.79704 21.2398 6.95434C21.1963 7.11163 21.1037 7.2501 20.9762 7.34865C20.8487 7.4472 20.6932 7.50044 20.5333 7.50027H18.3333V13.5001H19.8C19.9945 13.5001 20.181 13.5791 20.3185 13.7198C20.4561 13.8604 20.5333 14.0512 20.5333 14.2501C20.5333 14.449 20.4561 14.6398 20.3185 14.7804C20.181 14.9211 19.9945 15.0001 19.8 15.0001H2.2C2.00551 15.0001 1.81898 14.9211 1.68146 14.7804C1.54393 14.6398 1.46667 14.449 1.46667 14.2501C1.46667 14.0512 1.54393 13.8604 1.68146 13.7198C1.81898 13.5791 2.00551 13.5001 2.2 13.5001H3.66667V7.50027H1.46667C1.30697 7.50033 1.15163 7.44707 1.02423 7.3486C0.896832 7.25012 0.80435 7.1118 0.760833 6.95466ZM12.4667 12.7501C12.4667 12.949 12.5439 13.1398 12.6815 13.2805C12.819 13.4211 13.0055 13.5001 13.2 13.5001C13.3945 13.5001 13.581 13.4211 13.7185 13.2805C13.8561 13.1398 13.9333 12.949 13.9333 12.7501V8.25025C13.9333 8.05135 13.8561 7.86059 13.7185 7.71994C13.581 7.57929 13.3945 7.50027 13.2 7.50027C13.0055 7.50027 12.819 7.57929 12.6815 7.71994C12.5439 7.86059 12.4667 8.05135 12.4667 8.25025V12.7501ZM8.06667 12.7501C8.06667 12.949 8.14393 13.1398 8.28146 13.2805C8.41898 13.4211 8.60551 13.5001 8.8 13.5001C8.99449 13.5001 9.18102 13.4211 9.31855 13.2805C9.45607 13.1398 9.53333 12.949 9.53333 12.7501V8.25025C9.53333 8.05135 9.45607 7.86059 9.31855 7.71994C9.18102 7.57929 8.99449 7.50027 8.8 7.50027C8.60551 7.50027 8.41898 7.57929 8.28146 7.71994C8.14393 7.86059 8.06667 8.05135 8.06667 8.25025V12.7501Z" fill="#E9E0F5"/>
</svg>
