<svg width="28" height="16" viewBox="0 0 28 16" fill="none" xmlns="http://www.w3.org/2000/svg">
<path id="Vector" d="M18.6667 8C18.6667 8.87903 18.393 9.73832 17.8802 10.4692C17.3674 11.2001 16.6386 11.7697 15.7859 12.1061C14.9331 12.4425 13.9948 12.5305 13.0896 12.359C12.1843 12.1876 11.3528 11.7643 10.7002 11.1427C10.0475 10.5211 9.60307 9.72921 9.423 8.86707C9.24294 8.00493 9.33535 7.1113 9.68856 6.29919C10.0418 5.48707 10.6399 4.79294 11.4073 4.30458C12.1748 3.81622 13.077 3.55556 14 3.55556C15.2377 3.55556 16.4247 4.02381 17.2998 4.8573C18.175 5.6908 18.6667 6.82126 18.6667 8ZM28 0.888889V15.1111C28 15.3469 27.9017 15.573 27.7266 15.7397C27.5516 15.9064 27.3142 16 27.0667 16H0.933333C0.685798 16 0.448401 15.9064 0.273367 15.7397C0.098333 15.573 0 15.3469 0 15.1111V0.888889C0 0.653141 0.098333 0.427049 0.273367 0.26035C0.448401 0.0936507 0.685798 0 0.933333 0H27.0667C27.3142 0 27.5516 0.0936507 27.7266 0.26035C27.9017 0.427049 28 0.653141 28 0.888889ZM26.1333 6.03889C25.0735 5.74045 24.109 5.19423 23.3275 4.44998C22.5461 3.70573 21.9725 2.78711 21.6592 1.77778H6.34083C6.02747 2.78711 5.45394 3.70573 4.67248 4.44998C3.89102 5.19423 2.92646 5.74045 1.86667 6.03889V9.96111C2.92646 10.2595 3.89102 10.8058 4.67248 11.55C5.45394 12.2943 6.02747 13.2129 6.34083 14.2222H21.6592C21.9725 13.2129 22.5461 12.2943 23.3275 11.55C24.109 10.8058 25.0735 10.2595 26.1333 9.96111V6.03889Z" fill="#E9E0F5"/>
</svg>
