<svg width="127" height="127" viewBox="0 0 127 127" fill="none" xmlns="http://www.w3.org/2000/svg">
<g clip-path="url(#clip0_83_236)">
<path d="M98.8774 28.3813H16.1899C13.0571 28.3813 10.0525 29.6259 7.83724 31.8411C5.62197 34.0564 4.37744 37.061 4.37744 40.1938V87.4438C4.37744 90.5767 5.62197 93.5813 7.83724 95.7965C10.0525 98.0118 13.0571 99.2563 16.1899 99.2563H98.8774C102.01 99.2563 105.015 98.0118 107.23 95.7965C109.445 93.5813 110.69 90.5767 110.69 87.4438V40.1938C110.69 37.061 109.445 34.0564 107.23 31.8411C105.015 29.6259 102.01 28.3813 98.8774 28.3813ZM102.815 87.4438C102.815 88.4881 102.4 89.4897 101.662 90.2281C100.923 90.9665 99.9217 91.3813 98.8774 91.3813H16.1899C15.1457 91.3813 14.1441 90.9665 13.4057 90.2281C12.6673 89.4897 12.2524 88.4881 12.2524 87.4438V40.1938C12.2524 39.1496 12.6673 38.148 13.4057 37.4096C14.1441 36.6712 15.1457 36.2563 16.1899 36.2563H98.8774C99.9217 36.2563 100.923 36.6712 101.662 37.4096C102.4 38.148 102.815 39.1496 102.815 40.1938V87.4438ZM94.9399 48.0688V79.5688C94.9399 80.6131 94.5251 81.6147 93.7867 82.3531C93.0483 83.0915 92.0467 83.5063 91.0024 83.5063H24.0649C23.0207 83.5063 22.0191 83.0915 21.2807 82.3531C20.5423 81.6147 20.1274 80.6131 20.1274 79.5688V48.0688C20.1274 47.0246 20.5423 46.023 21.2807 45.2846C22.0191 44.5462 23.0207 44.1313 24.0649 44.1313H91.0024C92.0467 44.1313 93.0483 44.5462 93.7867 45.2846C94.5251 46.023 94.9399 47.0246 94.9399 48.0688ZM126.44 48.0688V79.5688C126.44 80.6131 126.025 81.6147 125.287 82.3531C124.548 83.0915 123.547 83.5063 122.502 83.5063C121.458 83.5063 120.457 83.0915 119.718 82.3531C118.98 81.6147 118.565 80.6131 118.565 79.5688V48.0688C118.565 47.0246 118.98 46.023 119.718 45.2846C120.457 44.5462 121.458 44.1313 122.502 44.1313C123.547 44.1313 124.548 44.5462 125.287 45.2846C126.025 46.023 126.44 47.0246 126.44 48.0688Z" fill="black"/>
<path d="M97.146 22.8726C102.432 22.8723 107.518 24.8808 111.364 28.4873C115.209 32.0938 117.524 37.0256 117.834 42.2735L117.869 43.4827V44.0735L118.228 44.204C120.001 44.9019 121.546 46.073 122.693 47.5882C123.84 49.1033 124.544 50.9039 124.728 52.7916L124.776 53.7877V74.3978C124.777 76.4641 124.153 78.4828 122.985 80.1918C121.817 81.9008 120.16 83.2212 118.228 83.9815L117.869 84.1052V84.7029C117.869 89.9599 115.85 95.0183 112.223 98.8432C108.597 102.668 103.638 104.97 98.3618 105.279L97.146 105.313H21.1627C15.8769 105.313 10.7908 103.305 6.94508 99.6982C3.09931 96.0918 0.784578 91.16 0.47448 85.912L0.439941 84.7029V43.4827C0.439647 38.2256 2.4592 33.1672 6.08539 29.3423C9.71159 25.5175 14.6703 23.2153 19.9469 22.9069L21.1627 22.8726H97.146Z" fill="url(#paint0_linear_83_236)"/>
</g>
<defs>
<linearGradient id="paint0_linear_83_236" x1="0.439941" y1="22.8726" x2="76.3785" y2="137.403" gradientUnits="userSpaceOnUse">
<stop stop-color="#D4B8FA"/>
<stop offset="1" stop-color="#7E5EF2"/>
</linearGradient>
<clipPath id="clip0_83_236">
<rect width="126" height="126" fill="white" transform="translate(0.439941 0.818848)"/>
</clipPath>
</defs>
</svg>
