<svg width="420" height="132" viewBox="0 0 210 74" fill="none" xmlns="http://www.w3.org/2000/svg">
<g clip-path="url(#clip0_83_253)">
<path d="M208.266 1.93207V53.4783L191.599 72.068H71.4803V62.6276H1.73389V22.0064L19.7332 1.93207H116.341V8.92561H164.243L170.512 1.93207H208.266Z" fill="url(#paint0_linear_83_253)"/>
<path d="M209.957 0.0482178V54.2592L192.3 73.9518H69.7916V64.5133H0.043457V21.2274L19.0335 0.0482178H118.031V7.03983H163.544L169.812 0.0482178H209.957ZM208.266 53.4783V1.93206H170.513L164.244 8.9256H116.342V1.93206H19.7337L1.7343 22.0064V62.6276H71.4807V72.068H191.6L208.266 53.4783Z" fill="url(#paint1_radial_83_253)"/>
<path d="M165.744 0.190904L162.041 4.26709H120.65V0.0482178L165.744 0.190904Z" fill="#AE7AFE"/>
<path d="M66.3529 67.2012H0.043457V73.9518H66.3529V67.2012Z" fill="#A46BF1"/>
</g>
<defs>
<linearGradient id="paint0_linear_83_253" x1="1.99988" y1="54.3788" x2="208" y2="54.3789" gradientUnits="userSpaceOnUse">
<stop stop-color="#7E5EF2"/>
<stop offset="0.0001" stop-color="#7E5EF2"/>
<stop offset="1" stop-color="#B67EFF"/>
</linearGradient>
<radialGradient id="paint1_radial_83_253" cx="0" cy="0" r="1" gradientUnits="userSpaceOnUse" gradientTransform="translate(105 37) rotate(90) scale(36.9518 104.957)">
<stop stop-color="#7E5EF2"/>
<stop offset="0.0001" stop-color="#7E5EF2"/>
<stop offset="0.59375" stop-color="#A46AF0"/>
</radialGradient>
<clipPath id="clip0_83_253">
<rect width="210" height="74" fill="white"/>
</clipPath>
</defs>
</svg>
