<svg width="25" height="18" viewBox="0 0 25 18" fill="none" xmlns="http://www.w3.org/2000/svg">
<path id="Vector" d="M23.2143 0H1.78571C1.31211 0 0.85791 0.189642 0.523023 0.527208C0.188137 0.864773 0 1.32261 0 1.8V16.2C0 16.6774 0.188137 17.1352 0.523023 17.4728C0.85791 17.8104 1.31211 18 1.78571 18H23.2143C23.6879 18 24.1421 17.8104 24.477 17.4728C24.8119 17.1352 25 16.6774 25 16.2V1.8C25 1.32261 24.8119 0.864773 24.477 0.527208C24.1421 0.189642 23.6879 0 23.2143 0ZM13.3929 14.4H11.6071C11.3703 14.4 11.1432 14.3052 10.9758 14.1364C10.8084 13.9676 10.7143 13.7387 10.7143 13.5C10.7143 13.2613 10.8084 13.0324 10.9758 12.8636C11.1432 12.6948 11.3703 12.6 11.6071 12.6H13.3929C13.6297 12.6 13.8568 12.6948 14.0242 12.8636C14.1916 13.0324 14.2857 13.2613 14.2857 13.5C14.2857 13.7387 14.1916 13.9676 14.0242 14.1364C13.8568 14.3052 13.6297 14.4 13.3929 14.4ZM20.5357 14.4H16.9643C16.7275 14.4 16.5004 14.3052 16.3329 14.1364C16.1655 13.9676 16.0714 13.7387 16.0714 13.5C16.0714 13.2613 16.1655 13.0324 16.3329 12.8636C16.5004 12.6948 16.7275 12.6 16.9643 12.6H20.5357C20.7725 12.6 20.9996 12.6948 21.1671 12.8636C21.3345 13.0324 21.4286 13.2613 21.4286 13.5C21.4286 13.7387 21.3345 13.9676 21.1671 14.1364C20.9996 14.3052 20.7725 14.4 20.5357 14.4ZM1.78571 4.5V1.8H23.2143V4.5H1.78571Z" fill="#E9E0F5"/>
</svg>
