<svg width="43" height="35" viewBox="0 0 43 35" fill="none" xmlns="http://www.w3.org/2000/svg">
<path id="Vector" d="M22.9494 6.08904C23.0298 4.95746 23.3971 3.8664 24.0156 2.92236C24.6342 1.97832 25.4828 1.21356 26.4786 0.70274C27.4744 0.191916 28.5833 -0.047519 29.6972 0.00780815C30.8111 0.0631353 31.8919 0.411334 32.8341 1.01841C32.9418 1.09011 33.0285 1.19 33.0852 1.30758C33.1418 1.42516 33.1663 1.5561 33.1561 1.68663C33.1458 1.81717 33.1012 1.94248 33.0269 2.0494C32.9525 2.15632 32.8513 2.24091 32.7337 2.29427C31.0959 3.04388 29.7057 4.25854 28.73 5.79237C27.7543 7.3262 27.2346 9.11397 27.2333 10.941C27.2333 11.1542 27.2333 11.3675 27.2548 11.5771C27.2647 11.7095 27.2388 11.8423 27.1799 11.9609C27.121 12.0794 27.0314 12.1794 26.9208 12.25C26.8101 12.3205 26.6826 12.359 26.552 12.3612C26.4214 12.3633 26.2927 12.3292 26.1798 12.2624C25.1239 11.648 24.2604 10.7423 23.6888 9.65001C23.1172 8.55769 22.8609 7.32321 22.9494 6.08904ZM43 24.9043C43.0025 25.7375 42.7756 26.5548 42.345 27.2635C41.9143 27.9722 41.2971 28.544 40.5633 28.9142L40.4845 28.9506L33.5274 31.9653C33.4587 31.9961 33.3873 32.0205 33.3142 32.0382L21.8476 34.9544C21.734 34.9842 21.6173 34.9995 21.5 35H2.86667C2.10638 35 1.37723 34.6928 0.839627 34.1459C0.302023 33.5989 0 32.8572 0 32.0838V24.7931C0 24.0197 0.302023 23.2779 0.839627 22.731C1.37723 22.1841 2.10638 21.8769 2.86667 21.8769H8.00695L12.0597 17.7522C12.5911 17.2092 13.223 16.7787 13.919 16.4855C14.6149 16.1924 15.361 16.0425 16.1142 16.0444H25.0833C25.8404 16.0443 26.5877 16.2185 27.2692 16.5541C27.9507 16.8896 28.5487 17.3777 29.0184 17.9817C29.4881 18.5858 29.8173 19.2902 29.9814 20.0421C30.1454 20.794 30.14 21.5739 29.9656 22.3234L37.4619 20.57C38.1145 20.3942 38.7981 20.3732 39.4599 20.5086C40.1218 20.644 40.7442 20.9322 41.2793 21.3509C41.8144 21.7697 42.2478 22.3079 42.5461 22.9239C42.8444 23.54 42.9997 24.2175 43 24.9043ZM40.1333 24.9043C40.1331 24.6632 40.0783 24.4254 39.9731 24.2094C39.8679 23.9933 39.7152 23.8048 39.5269 23.6585C39.3385 23.5122 39.1196 23.412 38.887 23.3657C38.6544 23.3194 38.4145 23.3282 38.1858 23.3915L38.1302 23.4061L26.1261 26.2148C26.0208 26.2387 25.9132 26.2509 25.8054 26.2513H20.0667C19.6865 26.2513 19.3219 26.0976 19.0531 25.8242C18.7843 25.5507 18.6333 25.1798 18.6333 24.7931C18.6333 24.4064 18.7843 24.0355 19.0531 23.7621C19.3219 23.4886 19.6865 23.335 20.0667 23.335H25.0833C25.6535 23.335 26.2004 23.1046 26.6036 22.6944C27.0068 22.2842 27.2333 21.7279 27.2333 21.1478C27.2333 20.5677 27.0068 20.0114 26.6036 19.6012C26.2004 19.1911 25.6535 18.9606 25.0833 18.9606H16.1142C15.7376 18.9594 15.3646 19.0343 15.0167 19.1811C14.6688 19.3279 14.3531 19.5435 14.0879 19.8155L10.0333 23.9383V32.0838H21.3208L32.5062 29.2386L39.3145 26.2895C39.5623 26.1567 39.7697 25.9574 39.914 25.7132C40.0583 25.469 40.1342 25.1893 40.1333 24.9043ZM30.1 10.941C30.1 12.2387 30.4783 13.5073 31.187 14.5864C31.8957 15.6654 32.9031 16.5064 34.0817 17.003C35.2603 17.4997 36.5571 17.6296 37.8083 17.3764C39.0595 17.1233 40.2088 16.4983 41.1108 15.5807C42.0129 14.663 42.6272 13.4939 42.876 12.221C43.1249 10.9482 42.9972 9.62892 42.509 8.42995C42.0208 7.23098 41.1941 6.20621 40.1334 5.48521C39.0727 4.76422 37.8257 4.37939 36.55 4.37939C34.8393 4.37939 33.1988 5.0707 31.9891 6.30123C30.7795 7.53176 30.1 9.20072 30.1 10.941Z" fill="#E9E0F5"/>
</svg>
