<svg width="126" height="126" viewBox="0 0 126 126" fill="none" xmlns="http://www.w3.org/2000/svg">
<g clip-path="url(#clip0_83_226)">
<path d="M53.8446 53.8446H71.7928V71.7928H53.8446V53.8446ZM125.637 76.2798C125.637 77.4698 125.165 78.6112 124.323 79.4526C123.482 80.2941 122.34 80.7669 121.15 80.7669H112.176V103.202C112.176 105.582 111.231 107.865 109.548 109.548C107.865 111.231 105.582 112.176 103.202 112.176H80.7669V121.15C80.7669 122.34 80.2941 123.482 79.4526 124.323C78.6112 125.165 77.4698 125.637 76.2798 125.637C75.0898 125.637 73.9485 125.165 73.107 124.323C72.2655 123.482 71.7928 122.34 71.7928 121.15V112.176H53.8446V121.15C53.8446 122.34 53.3718 123.482 52.5303 124.323C51.6889 125.165 50.5476 125.637 49.3575 125.637C48.1675 125.637 47.0262 125.165 46.1847 124.323C45.3432 123.482 44.8705 122.34 44.8705 121.15V112.176H22.4352C20.0552 112.176 17.7726 111.231 16.0896 109.548C14.4066 107.865 13.4611 105.582 13.4611 103.202V80.7669H4.48705C3.29701 80.7669 2.15571 80.2941 1.31423 79.4526C0.472741 78.6112 0 77.4698 0 76.2798C0 75.0898 0.472741 73.9485 1.31423 73.107C2.15571 72.2655 3.29701 71.7928 4.48705 71.7928H13.4611V53.8446H4.48705C3.29701 53.8446 2.15571 53.3718 1.31423 52.5303C0.472741 51.6889 0 50.5476 0 49.3575C0 48.1675 0.472741 47.0262 1.31423 46.1847C2.15571 45.3432 3.29701 44.8705 4.48705 44.8705H13.4611V22.4352C13.4611 20.0552 14.4066 17.7726 16.0896 16.0896C17.7726 14.4066 20.0552 13.4611 22.4352 13.4611H44.8705V4.48705C44.8705 3.29701 45.3432 2.15571 46.1847 1.31423C47.0262 0.472741 48.1675 0 49.3575 0C50.5476 0 51.6889 0.472741 52.5303 1.31423C53.3718 2.15571 53.8446 3.29701 53.8446 4.48705V13.4611H71.7928V4.48705C71.7928 3.29701 72.2655 2.15571 73.107 1.31423C73.9485 0.472741 75.0898 0 76.2798 0C77.4698 0 78.6112 0.472741 79.4526 1.31423C80.2941 2.15571 80.7669 3.29701 80.7669 4.48705V13.4611H103.202C105.582 13.4611 107.865 14.4066 109.548 16.0896C111.231 17.7726 112.176 20.0552 112.176 22.4352V44.8705H121.15C122.34 44.8705 123.482 45.3432 124.323 46.1847C125.165 47.0262 125.637 48.1675 125.637 49.3575C125.637 50.5476 125.165 51.6889 124.323 52.5303C123.482 53.3718 122.34 53.8446 121.15 53.8446H112.176V71.7928H121.15C122.34 71.7928 123.482 72.2655 124.323 73.107C125.165 73.9485 125.637 75.0898 125.637 76.2798ZM80.7669 49.3575C80.7669 48.1675 80.2941 47.0262 79.4526 46.1847C78.6112 45.3432 77.4698 44.8705 76.2798 44.8705H49.3575C48.1675 44.8705 47.0262 45.3432 46.1847 46.1847C45.3432 47.0262 44.8705 48.1675 44.8705 49.3575V76.2798C44.8705 77.4698 45.3432 78.6112 46.1847 79.4526C47.0262 80.2941 48.1675 80.7669 49.3575 80.7669H76.2798C77.4698 80.7669 78.6112 80.2941 79.4526 79.4526C80.2941 78.6112 80.7669 77.4698 80.7669 76.2798V49.3575Z" fill="url(#paint0_linear_83_226)"/>
</g>
<defs>
<linearGradient id="paint0_linear_83_226" x1="0" y1="0" x2="125.637" y2="125.637" gradientUnits="userSpaceOnUse">
<stop stop-color="#D4B8FA"/>
<stop offset="1" stop-color="#7E5EF2"/>
</linearGradient>
<clipPath id="clip0_83_226">
<rect width="126" height="126" fill="white"/>
</clipPath>
</defs>
</svg>
