<svg width="113" height="96" viewBox="0 0 113 96" fill="none" xmlns="http://www.w3.org/2000/svg">
<path d="M24.0078 0.75L27.9453 36.1875H24.6221L17.8535 26.0957L16.751 24.375H0.0166325L1.00101 29.0527L4.81251 48L0.99707 66.9512L0.0126953 71.625H16.7471L17.8574 69.9004L24.6181 59.8125H27.9414L24.0039 95.25H37.9072L39.1396 94.1436L73.4746 59.8125H95.375C99.9268 59.8125 102.837 57.1665 105.467 55.0127C108.093 52.8589 110.019 50.709 110.019 50.709L112.602 48L110.019 45.291C110.019 45.291 108.093 43.1411 105.463 40.9873C102.837 38.8335 99.9307 36.1875 95.375 36.1875H73.4707L39.1475 1.85644L37.9111 0.75H24.0078ZM32.8672 8.625H34.5918L68.9189 42.9561L70.1514 44.0625H95.375C95.1781 44.0625 98.2376 45.354 100.419 47.1377C100.958 47.5866 100.943 47.5866 101.403 48C100.943 48.4134 100.958 48.4134 100.419 48.8623C98.2376 50.646 95.1742 51.9375 95.375 51.9375H70.1514L68.9189 53.0439L34.5918 87.375H32.8672L36.8047 51.9375H20.3144L19.2119 53.6621L12.4355 63.75H9.61626L12.5694 48.7363L12.8056 48L12.5615 47.2598L9.61232 32.25H12.4394L19.2119 42.3418L20.3144 44.0625H36.8047L32.8672 8.625ZM56 12.5625L63.875 20.4375H71.75L75.6875 16.5L71.75 12.5625H56ZM63.875 75.5625L56 83.4375H71.75L75.6875 79.5L71.75 75.5625H63.875Z" fill="white"/>
</svg>
