<svg width="163" height="34" viewBox="0 0 163 34" fill="none" xmlns="http://www.w3.org/2000/svg">
<g id="Frame 1">
<path id="Star 1" d="M15.0941 2.03902C15.3615 1.35886 16.3241 1.35886 16.5915 2.03902L19.4515 9.31392C19.566 9.60525 19.8391 9.80368 20.1516 9.82258L27.9542 10.2945C28.6837 10.3387 28.9811 11.2541 28.4169 11.7186L22.3819 16.6867C22.1402 16.8856 22.0359 17.2067 22.1144 17.5097L24.0767 25.0763C24.2602 25.7837 23.4815 26.3495 22.8653 25.9564L16.2755 21.752C16.0116 21.5836 15.674 21.5836 15.4101 21.752L8.82022 25.9564C8.2041 26.3495 7.42538 25.7837 7.60884 25.0763L9.57113 17.5097C9.64971 17.2067 9.54539 16.8856 9.30371 16.6867L3.26866 11.7186C2.70442 11.2541 3.00186 10.3387 3.73136 10.2945L11.534 9.82258C11.8465 9.80368 12.1196 9.60525 12.2341 9.31392L15.0941 2.03902Z" fill="url(#paint0_linear_83_265)"/>
<path id="Star 2" d="M48.0765 2.03902C48.3439 1.35886 49.3065 1.35886 49.5739 2.03902L52.4339 9.31392C52.5484 9.60525 52.8215 9.80368 53.134 9.82258L60.9366 10.2945C61.6661 10.3387 61.9636 11.2541 61.3993 11.7186L55.3643 16.6867C55.1226 16.8856 55.0183 17.2067 55.0969 17.5097L57.0591 25.0763C57.2426 25.7837 56.4639 26.3495 55.8478 25.9564L49.2579 21.752C48.994 21.5836 48.6564 21.5836 48.3925 21.752L41.8026 25.9564C41.1865 26.3495 40.4078 25.7837 40.5913 25.0763L42.5536 17.5097C42.6321 17.2067 42.5278 16.8856 42.2861 16.6867L36.2511 11.7186C35.6868 11.2541 35.9843 10.3387 36.7138 10.2945L44.5164 9.82258C44.8289 9.80368 45.102 9.60525 45.2165 9.31392L48.0765 2.03902Z" fill="url(#paint1_linear_83_265)"/>
<path id="Star 3" d="M81.059 2.03902C81.3263 1.35886 82.2889 1.35886 82.5563 2.03902L85.4163 9.31392C85.5308 9.60525 85.804 9.80368 86.1164 9.82258L93.919 10.2945C94.6485 10.3387 94.946 11.2541 94.3817 11.7186L88.3467 16.6867C88.105 16.8856 88.0007 17.2067 88.0793 17.5097L90.0416 25.0763C90.225 25.7837 89.4463 26.3495 88.8302 25.9564L82.2403 21.752C81.9764 21.5836 81.6388 21.5836 81.3749 21.752L74.7851 25.9564C74.1689 26.3495 73.3902 25.7837 73.5737 25.0763L75.536 17.5097C75.6146 17.2067 75.5102 16.8856 75.2686 16.6867L69.2335 11.7186C68.6693 11.2541 68.9667 10.3387 69.6962 10.2945L77.4988 9.82258C77.8113 9.80368 78.0844 9.60525 78.1989 9.31392L81.059 2.03902Z" fill="url(#paint2_linear_83_265)"/>
<path id="Star 4" d="M114.041 2.03902C114.309 1.35886 115.271 1.35886 115.539 2.03902L118.399 9.31392C118.513 9.60525 118.786 9.80368 119.099 9.82258L126.901 10.2945C127.631 10.3387 127.928 11.2541 127.364 11.7186L121.329 16.6867C121.087 16.8856 120.983 17.2067 121.062 17.5097L123.024 25.0763C123.207 25.7837 122.429 26.3495 121.813 25.9564L115.223 21.752C114.959 21.5836 114.621 21.5836 114.357 21.752L107.767 25.9564C107.151 26.3495 106.373 25.7837 106.556 25.0763L108.518 17.5097C108.597 17.2067 108.493 16.8856 108.251 16.6867L102.216 11.7186C101.652 11.2541 101.949 10.3387 102.679 10.2945L110.481 9.82258C110.794 9.80368 111.067 9.60525 111.181 9.31392L114.041 2.03902Z" fill="url(#paint3_linear_83_265)"/>
<path id="Star 5" d="M148.522 2.03902C148.254 1.35886 147.292 1.35886 147.024 2.03902L144.164 9.31392C144.05 9.60525 143.777 9.80368 143.464 9.82258L135.662 10.2945C134.932 10.3387 134.635 11.2541 135.199 11.7186L141.234 16.6867C141.476 16.8856 141.58 17.2067 141.501 17.5097L139.539 25.0763C139.356 25.7837 140.134 26.3495 140.75 25.9564L147.34 21.752C147.604 21.5836 147.942 21.5836 148.206 21.752L154.796 25.9564C155.412 26.3495 156.19 25.7837 156.007 25.0763L154.045 17.5097C153.966 17.2067 154.07 16.8856 154.312 16.6867L160.347 11.7186C160.911 11.2541 160.614 10.3387 159.884 10.2945L152.082 9.82258C151.769 9.80368 151.496 9.60525 151.382 9.31392L148.522 2.03902Z" fill="url(#paint4_linear_83_265)"/>
</g>
<defs>
<linearGradient id="paint0_linear_83_265" x1="0.960449" y1="0.134644" x2="30.7251" y2="29.8993" gradientUnits="userSpaceOnUse">
<stop stop-color="#D4B8FA"/>
<stop offset="1" stop-color="#7E5EF2"/>
</linearGradient>
<linearGradient id="paint1_linear_83_265" x1="33.9429" y1="0.134644" x2="63.7075" y2="29.8993" gradientUnits="userSpaceOnUse">
<stop stop-color="#D4B8FA"/>
<stop offset="1" stop-color="#7E5EF2"/>
</linearGradient>
<linearGradient id="paint2_linear_83_265" x1="66.9253" y1="0.134644" x2="96.69" y2="29.8993" gradientUnits="userSpaceOnUse">
<stop stop-color="#D4B8FA"/>
<stop offset="1" stop-color="#7E5EF2"/>
</linearGradient>
<linearGradient id="paint3_linear_83_265" x1="99.9077" y1="0.134644" x2="129.672" y2="29.8993" gradientUnits="userSpaceOnUse">
<stop stop-color="#D4B8FA"/>
<stop offset="1" stop-color="#7E5EF2"/>
</linearGradient>
<linearGradient id="paint4_linear_83_265" x1="162.655" y1="0.134644" x2="132.891" y2="29.8993" gradientUnits="userSpaceOnUse">
<stop stop-color="#D4B8FA"/>
<stop offset="1" stop-color="#7E5EF2"/>
</linearGradient>
</defs>
</svg>
