<svg width="163" height="34" viewBox="0 0 163 34" fill="none" xmlns="http://www.w3.org/2000/svg">
<g id="Frame 1">
<path id="Star 1" d="M14.4808 2.03902C14.7482 1.35886 15.7108 1.35886 15.9782 2.03902L18.8382 9.31392C18.9527 9.60525 19.2258 9.80368 19.5383 9.82258L27.3409 10.2945C28.0704 10.3387 28.3679 11.2541 27.8036 11.7186L21.7686 16.6867C21.5269 16.8856 21.4226 17.2067 21.5012 17.5097L23.4634 25.0763C23.6469 25.7837 22.8682 26.3495 22.2521 25.9564L15.6622 21.752C15.3983 21.5836 15.0607 21.5836 14.7968 21.752L8.20694 25.9564C7.59082 26.3495 6.8121 25.7837 6.99556 25.0763L8.95785 17.5097C9.03643 17.2067 8.93211 16.8856 8.69043 16.6867L2.65538 11.7186C2.09113 11.2541 2.38858 10.3387 3.11808 10.2945L10.9207 9.82258C11.2332 9.80368 11.5063 9.60525 11.6208 9.31392L14.4808 2.03902Z" fill="url(#paint0_linear_83_286)"/>
<path id="Star 2" d="M47.4632 2.03902C47.7306 1.35886 48.6932 1.35886 48.9606 2.03902L51.8206 9.31392C51.9351 9.60525 52.2083 9.80368 52.5207 9.82258L60.3233 10.2945C61.0528 10.3387 61.3503 11.2541 60.786 11.7186L54.751 16.6867C54.5093 16.8856 54.405 17.2067 54.4836 17.5097L56.4459 25.0763C56.6293 25.7837 55.8506 26.3495 55.2345 25.9564L48.6446 21.752C48.3807 21.5836 48.0431 21.5836 47.7792 21.752L41.1894 25.9564C40.5732 26.3495 39.7945 25.7837 39.978 25.0763L41.9403 17.5097C42.0188 17.2067 41.9145 16.8856 41.6729 16.6867L35.6378 11.7186C35.0736 11.2541 35.371 10.3387 36.1005 10.2945L43.9031 9.82258C44.2156 9.80368 44.4887 9.60525 44.6032 9.31392L47.4632 2.03902Z" fill="url(#paint1_linear_83_286)"/>
<path id="Star 3" d="M80.4457 2.03902C80.7131 1.35886 81.6756 1.35886 81.943 2.03902L84.803 9.31392C84.9176 9.60525 85.1907 9.80368 85.5031 9.82258L93.3058 10.2945C94.0353 10.3387 94.3327 11.2541 93.7685 11.7186L87.7334 16.6867C87.4917 16.8856 87.3874 17.2067 87.466 17.5097L89.4283 25.0763C89.6117 25.7837 88.833 26.3495 88.2169 25.9564L81.627 21.752C81.3631 21.5836 81.0255 21.5836 80.7617 21.752L74.1718 25.9564C73.5557 26.3495 72.7769 25.7837 72.9604 25.0763L74.9227 17.5097C75.0013 17.2067 74.8969 16.8856 74.6553 16.6867L68.6202 11.7186C68.056 11.2541 68.3534 10.3387 69.0829 10.2945L76.8856 9.82258C77.198 9.80368 77.4711 9.60525 77.5857 9.31392L80.4457 2.03902Z" fill="url(#paint2_linear_83_286)"/>
<path id="Star 4" d="M113.428 2.03902C113.695 1.35886 114.658 1.35886 114.925 2.03902L117.785 9.31392C117.9 9.60525 118.173 9.80368 118.486 9.82258L126.288 10.2945C127.018 10.3387 127.315 11.2541 126.751 11.7186L120.716 16.6867C120.474 16.8856 120.37 17.2067 120.448 17.5097L122.411 25.0763C122.594 25.7837 121.815 26.3495 121.199 25.9564L114.609 21.752C114.346 21.5836 114.008 21.5836 113.744 21.752L107.154 25.9564C106.538 26.3495 105.759 25.7837 105.943 25.0763L107.905 17.5097C107.984 17.2067 107.879 16.8856 107.638 16.6867L101.603 11.7186C101.038 11.2541 101.336 10.3387 102.065 10.2945L109.868 9.82258C110.18 9.80368 110.454 9.60525 110.568 9.31392L113.428 2.03902Z" fill="url(#paint3_linear_83_286)"/>
<path id="Star 5" d="M147.908 2.03902C147.641 1.35886 146.678 1.35886 146.411 2.03902L143.551 9.31392C143.436 9.60525 143.163 9.80368 142.851 9.82258L135.048 10.2945C134.319 10.3387 134.021 11.2541 134.586 11.7186L140.621 16.6867C140.862 16.8856 140.967 17.2067 140.888 17.5097L138.926 25.0763C138.742 25.7837 139.521 26.3495 140.137 25.9564L146.727 21.752C146.991 21.5836 147.328 21.5836 147.592 21.752L154.182 25.9564C154.798 26.3495 155.577 25.7837 155.394 25.0763L153.431 17.5097C153.353 17.2067 153.457 16.8856 153.699 16.6867L159.734 11.7186C160.298 11.2541 160.001 10.3387 159.271 10.2945L151.468 9.82258C151.156 9.80368 150.883 9.60525 150.768 9.31392L147.908 2.03902Z" fill="url(#paint4_linear_83_286)"/>
<path id="Star 6" d="M154.182 25.9564L147.531 21.7131C147.3 21.5653 147.16 21.3096 147.16 21.0349V1.83263C147.16 1.47726 147.651 1.38417 147.781 1.7149L150.768 9.31392C150.883 9.60525 151.156 9.80368 151.468 9.82258L159.271 10.2945C160 10.3387 160.298 11.2541 159.734 11.7186L153.699 16.6867C153.457 16.8856 153.353 17.2067 153.431 17.5097L155.393 25.0763C155.577 25.7837 154.798 26.3495 154.182 25.9564Z" fill="#D9D9D9"/>
</g>
<defs>
<linearGradient id="paint0_linear_83_286" x1="0.347168" y1="0.134644" x2="30.1118" y2="29.8993" gradientUnits="userSpaceOnUse">
<stop stop-color="#D4B8FA"/>
<stop offset="1" stop-color="#7E5EF2"/>
</linearGradient>
<linearGradient id="paint1_linear_83_286" x1="33.3296" y1="0.134644" x2="63.0943" y2="29.8993" gradientUnits="userSpaceOnUse">
<stop stop-color="#D4B8FA"/>
<stop offset="1" stop-color="#7E5EF2"/>
</linearGradient>
<linearGradient id="paint2_linear_83_286" x1="66.312" y1="0.134644" x2="96.0767" y2="29.8993" gradientUnits="userSpaceOnUse">
<stop stop-color="#D4B8FA"/>
<stop offset="1" stop-color="#7E5EF2"/>
</linearGradient>
<linearGradient id="paint3_linear_83_286" x1="99.2944" y1="0.134644" x2="129.059" y2="29.8993" gradientUnits="userSpaceOnUse">
<stop stop-color="#D4B8FA"/>
<stop offset="1" stop-color="#7E5EF2"/>
</linearGradient>
<linearGradient id="paint4_linear_83_286" x1="162.042" y1="0.134644" x2="132.277" y2="29.8993" gradientUnits="userSpaceOnUse">
<stop stop-color="#D4B8FA"/>
<stop offset="1" stop-color="#7E5EF2"/>
</linearGradient>
</defs>
</svg>
