<svg width="1396" height="1548" viewBox="0 0 1396 1548" fill="none" xmlns="http://www.w3.org/2000/svg">
<g style="mix-blend-mode:difference" opacity="0.75" filter="url(#filter0_f_3_18)">
<path fill-rule="evenodd" clip-rule="evenodd" d="M433.464 76.2063C502.467 82.4851 573.096 39.9933 633.404 74.105C708.764 116.73 774.024 187.957 783.238 274.045C793.121 366.385 754.701 464.978 681.334 521.915C613.172 574.813 516.748 568.032 433.464 545.49C369.188 528.092 340.968 460.549 291.194 416.315C235.121 366.483 146.601 346.725 128.025 274.045C106.68 190.536 121.152 80.9348 193.496 34.0763C264.356 -11.8213 349.386 68.5557 433.464 76.2063Z" fill="#9D85F2"/>
<path fill-rule="evenodd" clip-rule="evenodd" d="M1115.09 20.4733C1193.19 16.3345 1277.57 39.0458 1326.21 100.259C1371.91 157.771 1345.69 237.82 1346.15 311.26C1346.62 385.544 1376.9 468.23 1328.89 524.938C1279.23 583.594 1190.96 571.747 1115.09 584.179C1012.96 600.915 887.94 684.471 817.437 608.748C746.424 532.479 838.475 412.986 860.981 311.26C875.976 243.481 879.543 173.791 925.231 121.507C974.261 65.4004 1040.66 24.4174 1115.09 20.4733Z" fill="#A46AF0"/>
<path fill-rule="evenodd" clip-rule="evenodd" d="M713.05 605.136C755.784 658.648 724.899 734.872 715.769 802.742C707.664 862.988 706.11 926.564 663.923 970.33C618.813 1017.13 553.775 1032.82 488.983 1038.02C410.202 1044.33 308.473 1067.54 263.703 1002.41C218.681 936.909 310.493 857.266 310.104 777.789C309.65 685.153 197.875 582.45 261.315 514.945C323.149 449.151 430.096 538.217 518.639 555.895C586.789 569.502 669.683 550.832 713.05 605.136Z" fill="#5005F2"/>
<path fill-rule="evenodd" clip-rule="evenodd" d="M946.118 367.39C1025.8 371.885 1081.52 437.203 1140.41 491.072C1203.69 548.959 1301.1 599.918 1293.73 685.366C1286.41 770.377 1181.06 802.228 1109.58 848.827C1058.71 881.991 1006.83 911.067 946.118 911.989C884.359 912.927 821.421 897.412 777.615 853.869C733.698 810.215 725.928 746.795 718.127 685.366C708.619 610.502 684.617 529.168 728.59 467.839C776.97 400.364 863.223 362.713 946.118 367.39Z" fill="#7E5EF2"/>
</g>
<defs>
<filter id="filter0_f_3_18" x="-480" y="-480" width="2336" height="2163.89" filterUnits="userSpaceOnUse" color-interpolation-filters="sRGB">
<feFlood flood-opacity="0" result="BackgroundImageFix"/>
<feBlend mode="normal" in="SourceGraphic" in2="BackgroundImageFix" result="shape"/>
<feGaussianBlur stdDeviation="250" result="effect1_foregroundBlur_3_18"/>
</filter>
</defs>
</svg>
