<svg width="53" height="52" viewBox="0 0 53 52" fill="none" xmlns="http://www.w3.org/2000/svg">
<path d="M26.5 33.0001V40.0001M50.25 26.4761V30.0251C50.25 39.1251 50.25 43.6774 47.4665 46.5054C44.6854 49.3334 40.2061 49.3334 31.25 49.3334H21.75C12.7939 49.3334 8.31463 49.3334 5.5335 46.5054C2.75 43.6774 2.75 39.1274 2.75 30.0251V26.4761C2.75 21.1351 2.75 18.4657 3.985 16.2537C5.21525 14.0394 7.46913 12.6674 11.9745 9.91875L16.7245 7.02308C21.4864 4.11808 23.8685 2.66675 26.5 2.66675C29.1315 2.66675 31.5113 4.11808 36.2755 7.02308L41.0255 9.91875C45.5309 12.6674 47.7848 14.0394 49.0174 16.2537" stroke="#DDCBF4" stroke-width="5" stroke-linecap="round"/>
</svg>
