<svg width="35" height="37" viewBox="0 0 35 37" fill="none" xmlns="http://www.w3.org/2000/svg">
<path id="Vector" d="M33.6 8.28268L18.7923 0.327246C18.3967 0.112594 17.952 0 17.5 0C17.048 0 16.6033 0.112594 16.2077 0.327246L1.4 8.28598C0.97712 8.51317 0.624116 8.84767 0.377852 9.25456C0.131587 9.66144 0.00109418 10.1258 0 10.5991V26.4009C0.00109418 26.8742 0.131587 27.3386 0.377852 27.7454C0.624116 28.1523 0.97712 28.4868 1.4 28.714L16.2077 36.6728C16.6033 36.8874 17.048 37 17.5 37C17.952 37 18.3967 36.8874 18.7923 36.6728L33.6 28.714C34.0229 28.4868 34.3759 28.1523 34.6222 27.7454C34.8684 27.3386 34.9989 26.8742 35 26.4009V10.6007C34.9998 10.1266 34.8697 9.66122 34.6234 9.25338C34.3771 8.84555 34.0236 8.51027 33.6 8.28268ZM17.5 2.64035L31.0204 9.91012L26.0094 12.6016L12.4889 5.33182L17.5 2.64035ZM17.5 17.1799L3.97957 9.91012L9.68558 6.84194L23.206 14.1117L17.5 17.1799ZM32.3077 26.4075L18.8462 33.6426V19.4649L24.2308 16.5719V22.467C24.2308 22.8175 24.3726 23.1537 24.625 23.4016C24.8775 23.6495 25.2199 23.7888 25.5769 23.7888C25.9339 23.7888 26.2763 23.6495 26.5288 23.4016C26.7813 23.1537 26.9231 22.8175 26.9231 22.467V15.1245L32.3077 12.2315V26.4009V26.4075Z" fill="#E9E0F5"/>
</svg>
