<svg width="17" height="18" viewBox="0 0 17 18" fill="none" xmlns="http://www.w3.org/2000/svg">
<path id="Vector" d="M15.9903 6.01788C15.5339 5.42071 14.9461 4.94109 14.2741 4.61769C14.2165 3.37347 13.6904 2.19962 12.8052 1.33979C11.9199 0.479963 10.7435 0.000172091 9.52 0H4.41989C4.11661 4.67494e-05 3.82205 0.103295 3.58302 0.293334C3.34399 0.483374 3.17421 0.749299 3.10066 1.04885L0.040595 13.5104C-0.00951971 13.7145 -0.0132858 13.9276 0.029583 14.1334C0.0724517 14.3392 0.160828 14.5324 0.287999 14.6982C0.41517 14.864 0.577791 14.9982 0.763511 15.0905C0.949231 15.1828 1.15316 15.2307 1.35982 15.2308H3.69737L3.44237 16.2796C3.39229 16.4836 3.38849 16.6965 3.43127 16.9022C3.47404 17.1079 3.56227 17.3009 3.68925 17.4668C3.81623 17.6326 3.97863 17.7667 4.16414 17.8591C4.34964 17.9515 4.55338 17.9997 4.7599 18H7.43745C7.74044 17.9996 8.03461 17.8961 8.2733 17.7061C8.51198 17.5161 8.68151 17.2504 8.75498 16.9512L9.52 13.8462H12.2401C13.1319 13.8461 14.0057 13.591 14.7621 13.11C15.5184 12.6289 16.1268 11.9412 16.5179 11.1252C16.909 10.3092 17.067 9.39778 16.9741 8.49479C16.8811 7.5918 16.5408 6.73356 15.992 6.01788H15.9903ZM1.35982 13.8462L4.41989 1.38462H9.52C10.3112 1.38439 11.0776 1.66505 11.6874 2.17827C12.2971 2.69148 12.712 3.40511 12.8606 4.19625C12.6548 4.1686 12.4476 4.15444 12.2401 4.15385H7.47996C7.17653 4.1537 6.88177 4.25686 6.64257 4.44691C6.40336 4.63697 6.23346 4.903 6.15988 5.20269L4.03908 13.8462H1.35982ZM15.5356 9.83942C15.3526 10.5883 14.9288 11.2533 14.3315 11.7285C13.7343 12.2037 12.998 12.4617 12.2401 12.4615H9.52C9.21672 12.4616 8.92216 12.5648 8.68313 12.7549C8.4441 12.9449 8.27432 13.2108 8.20077 13.5104L7.43575 16.6154H4.7599L6.45993 9.69231H9.52C10.5656 9.69261 11.5821 9.34179 12.4119 8.69422C13.2418 8.04665 13.8387 7.13849 14.1101 6.11048C14.4171 6.3176 14.6892 6.57388 14.9159 6.86942C15.2358 7.28307 15.4581 7.76597 15.5657 8.28091C15.6733 8.79584 15.6632 9.32905 15.5364 9.83942H15.5356Z" fill="#E9E0F5"/>
</svg>
