<svg width="788" height="127" viewBox="0 0 788 127" fill="none" xmlns="http://www.w3.org/2000/svg">
<path d="M120 64C120 94.3757 95.3757 119 65 119C34.6243 119 10 94.3757 10 64C10 33.6243 34.6243 9 65 9C95.3757 9 120 33.6243 120 64ZM120 64H225M340 64C340 94.3757 315.376 119 285 119C254.624 119 230 94.3757 230 64C230 33.6243 254.624 9 285 9C315.376 9 340 33.6243 340 64ZM340 64H445M561 64C561 94.3757 536.376 119 506 119C475.624 119 451 94.3757 451 64C451 33.6243 475.624 9 506 9C536.376 9 561 33.6243 561 64ZM561 64H666M781 64C781 94.3757 756.376 119 726 119C695.624 119 671 94.3757 671 64C671 33.6243 695.624 9 726 9C756.376 9 781 33.6243 781 64Z" stroke="black" stroke-opacity="0.5" stroke-width="13"/>
<circle cx="63.5" cy="63.5002" r="46.9797" fill="black" fill-opacity="0.5"/>
<path d="M63.5 0C50.9409 0 38.6638 3.72421 28.2213 10.7017C17.7788 17.6791 9.63984 27.5965 4.83368 39.1996C0.0275136 50.8027 -1.23 63.5704 1.22016 75.8882C3.67032 88.206 9.71811 99.5206 18.5987 108.401C27.4794 117.282 38.794 123.33 51.1118 125.78C63.4296 128.23 76.1973 126.972 87.8004 122.166C99.4035 117.36 109.321 109.221 116.298 98.7787C123.276 88.3362 127 76.0591 127 63.5C126.982 46.6642 120.286 30.5231 108.382 18.6184C96.4769 6.71365 80.3358 0.0177789 63.5 0ZM91.379 52.302L57.1867 86.4943C56.733 86.9485 56.1943 87.3088 55.6013 87.5546C55.0083 87.8004 54.3727 87.9269 53.7308 87.9269C53.0889 87.9269 52.4533 87.8004 51.8603 87.5546C51.2673 87.3088 50.7286 86.9485 50.2749 86.4943L35.6211 71.8405C34.7045 70.9239 34.1896 69.6808 34.1896 68.3846C34.1896 67.0884 34.7045 65.8453 35.6211 64.9287C36.5376 64.0122 37.7807 63.4973 39.0769 63.4973C40.3731 63.4973 41.6163 64.0122 42.5328 64.9287L53.7308 76.1328L84.4672 45.3903C84.9211 44.9364 85.4598 44.5764 86.0528 44.3308C86.6457 44.0852 87.2813 43.9588 87.9231 43.9588C88.5649 43.9588 89.2004 44.0852 89.7934 44.3308C90.3863 44.5764 90.9251 44.9364 91.379 45.3903C91.8328 45.8441 92.1928 46.3829 92.4384 46.9758C92.684 47.5688 92.8104 48.2043 92.8104 48.8461C92.8104 49.488 92.684 50.1235 92.4384 50.7164C92.1928 51.3094 91.8328 51.8482 91.379 52.302Z" fill="url(#paint0_linear_226_108)"/>
<defs>
<linearGradient id="paint0_linear_226_108" x1="0" y1="0" x2="127" y2="127" gradientUnits="userSpaceOnUse">
<stop stop-color="#D4B8FA"/>
<stop offset="1" stop-color="#7E5EF2"/>
</linearGradient>
</defs>
</svg>
