<svg width="35" height="30" viewBox="0 0 35 30" fill="none" xmlns="http://www.w3.org/2000/svg">
<path id="Vector" d="M35 18.9137C34.997 21.853 33.8352 24.6711 31.7696 26.7496C29.7039 28.828 26.9032 29.997 23.982 30H9.72333C9.20765 30 8.7131 29.7939 8.34846 29.427C7.98382 29.0601 7.77897 28.5625 7.77897 28.0436C7.77897 27.5247 7.98382 27.0271 8.34846 26.6602C8.7131 26.2933 9.20765 26.0872 9.72333 26.0872H23.982C25.8728 26.0872 27.6861 25.3314 29.0232 23.9861C30.3602 22.6408 31.1113 20.8162 31.1113 18.9137C31.1113 17.0112 30.3602 15.1866 29.0232 13.8413C27.6861 12.496 25.8728 11.7402 23.982 11.7402H6.64476L11.1038 16.2253C11.4691 16.5928 11.6743 17.0913 11.6743 17.6111C11.6743 18.1308 11.4691 18.6293 11.1038 18.9968C10.7386 19.3644 10.2431 19.5709 9.72657 19.5709C9.21 19.5709 8.71459 19.3644 8.34931 18.9968L0.571879 11.1712C0.390613 10.9895 0.246788 10.7735 0.148652 10.5357C0.0505161 10.2979 0 10.0429 0 9.78543C0 9.52794 0.0505161 9.27298 0.148652 9.03517C0.246788 8.79737 0.390613 8.5814 0.571879 8.39964L8.34931 0.574012C8.71459 0.206478 9.21 0 9.72657 0C10.2431 0 10.7386 0.206478 11.1038 0.574012C11.4691 0.941546 11.6743 1.44003 11.6743 1.9598C11.6743 2.47957 11.4691 2.97805 11.1038 3.34559L6.64476 7.82739H23.982C26.9031 7.83084 29.7036 8.99997 31.7691 11.0783C33.8346 13.1566 34.9966 15.9745 35 18.9137Z" fill="#E9E0F5"/>
</svg>
