<svg width="126" height="127" viewBox="0 0 126 127" fill="none" xmlns="http://www.w3.org/2000/svg">
<path d="M113.394 44.6208V25.6942H94.4949V13.0764H113.394C116.859 13.0764 119.826 14.313 122.295 16.786C124.765 19.2591 125.997 22.2285 125.993 25.6942V44.6208H113.394ZM1.06955e-05 44.6208V25.6942C1.06955e-05 22.2243 1.23474 19.2528 3.70421 16.7797C6.17368 14.3067 9.13872 13.0722 12.5993 13.0764H31.4983V25.6942H12.5993V44.6208H1.06955e-05ZM94.4949 114.018V101.401H113.394V82.474H125.993V101.401C125.993 104.87 124.758 107.842 122.289 110.315C119.82 112.788 116.854 114.023 113.394 114.018H94.4949ZM12.5993 114.018C9.13452 114.018 6.16738 112.782 3.69791 110.309C1.22844 107.836 -0.00418908 104.866 1.06955e-05 101.401V82.474H12.5993V101.401H31.4983V114.018H12.5993ZM25.1986 88.7829V38.3119H100.795V88.7829H25.1986Z" fill="url(#paint0_linear_83_231)"/>
<defs>
<linearGradient id="paint0_linear_83_231" x1="0" y1="13.0764" x2="98.5114" y2="136.036" gradientUnits="userSpaceOnUse">
<stop stop-color="#D4B8FA"/>
<stop offset="1" stop-color="#7E5EF2"/>
</linearGradient>
</defs>
</svg>
