<svg width="35" height="35" viewBox="0 0 35 35" fill="none" xmlns="http://www.w3.org/2000/svg">
<path id="Vector" d="M32.0833 0H2.91667C2.14312 0 1.40125 0.295018 0.854272 0.820155C0.307291 1.34529 0 2.05753 0 2.80018V13.0856C0 28.7684 13.8214 33.9715 16.5885 34.8553C17.1796 35.0482 17.8204 35.0482 18.4115 34.8553C21.1823 33.9715 35 28.7684 35 13.0856V2.80018C35 2.05753 34.6927 1.34529 34.1457 0.820155C33.5987 0.295018 32.8569 0 32.0833 0ZM25.8234 12.1913L15.6151 21.9919C15.4797 22.1221 15.3188 22.2254 15.1418 22.2958C14.9647 22.3663 14.775 22.4026 14.5833 22.4026C14.3917 22.4026 14.2019 22.3663 14.0249 22.2958C13.8478 22.2254 13.687 22.1221 13.5516 21.9919L9.17656 17.7917C8.90292 17.529 8.74919 17.1726 8.74919 16.8011C8.74919 16.4296 8.90292 16.0732 9.17656 15.8105C9.4502 15.5478 9.82134 15.4002 10.2083 15.4002C10.5953 15.4002 10.9665 15.5478 11.2401 15.8105L14.5833 19.0202L23.7599 10.2102C23.8954 10.0801 24.0562 9.9769 24.2333 9.9065C24.4103 9.8361 24.6 9.79986 24.7917 9.79986C24.9833 9.79986 25.173 9.8361 25.3501 9.9065C25.5271 9.9769 25.6879 10.0801 25.8234 10.2102C25.9589 10.3403 26.0664 10.4947 26.1397 10.6646C26.2131 10.8346 26.2508 11.0168 26.2508 11.2007C26.2508 11.3847 26.2131 11.5669 26.1397 11.7368C26.0664 11.9068 25.9589 12.0612 25.8234 12.1913Z" fill="#E9E0F5"/>
</svg>
