<svg width="158" height="159" viewBox="0 0 158 159" fill="none" xmlns="http://www.w3.org/2000/svg">
<path d="M109.252 38.9897C104.756 33.8575 102.279 27.2666 102.281 20.4438H81.9594V101.993C81.8026 106.406 79.9395 110.586 76.7624 113.653C73.5852 116.719 69.342 118.434 64.9262 118.434C55.5875 118.434 47.8272 110.805 47.8272 101.335C47.8272 90.0236 58.7442 81.5398 69.9901 85.0254V64.2435C47.3011 61.2183 27.4399 78.8434 27.4399 101.335C27.4399 123.235 45.5912 138.821 64.8604 138.821C85.5107 138.821 102.281 122.051 102.281 101.335V59.9688C110.521 65.8867 120.415 69.0618 130.56 69.0444V48.7229C130.56 48.7229 118.196 49.3148 109.252 38.9897Z" fill="url(#paint0_linear_53_368)"/>
<defs>
<linearGradient id="paint0_linear_53_368" x1="27.4399" y1="20.4438" x2="144.699" y2="122.59" gradientUnits="userSpaceOnUse">
<stop stop-color="#D4B8FA"/>
<stop offset="1" stop-color="#7E5EF2"/>
</linearGradient>
</defs>
</svg>
