<svg width="158" height="159" viewBox="0 0 158 159" fill="none" xmlns="http://www.w3.org/2000/svg">
<path d="M147.709 40.1736C142.645 42.4754 137.186 43.988 131.531 44.7114C137.318 41.2258 141.79 35.7015 143.895 29.0592C138.436 32.3475 132.386 34.6493 126.006 35.9646C120.811 30.3088 113.511 27.0205 105.225 27.0205C89.7697 27.0205 77.1428 39.6474 77.1428 55.2338C77.1428 57.4698 77.4058 59.6401 77.8662 61.6788C54.4537 60.4951 33.6061 49.2492 19.7297 32.216C17.2963 36.3592 15.9153 41.2258 15.9153 46.3555C15.9153 56.1545 20.8477 64.8356 28.4764 69.768C23.8071 69.768 19.4666 68.4526 15.6522 66.4797V66.677C15.6522 80.3562 25.3855 91.7993 38.2755 94.3642C34.137 95.4967 29.7924 95.6543 25.5828 94.8245C27.369 100.431 30.8673 105.337 35.5858 108.852C40.3043 112.367 46.0058 114.315 51.8889 114.423C41.9164 122.317 29.555 126.585 16.836 126.523C14.6 126.523 12.364 126.392 10.1279 126.129C22.6233 134.152 37.4863 138.822 53.4015 138.822C105.225 138.822 133.701 95.811 133.701 58.5221C133.701 57.2725 133.701 56.0888 133.635 54.8392C139.159 50.8933 143.895 45.8952 147.709 40.1736Z" fill="url(#paint0_linear_53_363)"/>
<defs>
<linearGradient id="paint0_linear_53_363" x1="10.1279" y1="27.0205" x2="119.565" y2="161.692" gradientUnits="userSpaceOnUse">
<stop stop-color="#D4B8FA"/>
<stop offset="1" stop-color="#7E5EF2"/>
</linearGradient>
</defs>
</svg>
