<svg width="158" height="159" viewBox="0 0 158 159" fill="none" xmlns="http://www.w3.org/2000/svg">
<path d="M64.5888 105.973L102.196 84.2963L64.5888 62.6194V105.973ZM148.354 49.3964C149.296 52.7925 149.948 57.3446 150.383 63.1252C150.89 68.9057 151.108 73.8914 151.108 78.2268L151.542 84.2963C151.542 100.12 150.383 111.754 148.354 119.196C146.543 125.699 142.34 129.89 135.818 131.697C132.413 132.636 126.181 133.286 116.616 133.72C107.196 134.225 98.5732 134.442 90.6024 134.442L79.081 134.876C48.7197 134.876 29.8073 133.72 22.3438 131.697C15.8222 129.89 11.6195 125.699 9.80793 119.196C8.86593 115.8 8.21378 111.248 7.77901 105.467C7.27178 99.6869 7.0544 94.7012 7.0544 90.3658L6.61963 84.2963C6.61963 68.4721 7.77901 56.8389 9.80793 49.3964C11.6195 42.8934 15.8222 38.7025 22.3438 36.8961C25.7494 35.9567 31.9811 35.3064 41.546 34.8729C50.966 34.3671 59.5889 34.1503 67.5597 34.1503L79.081 33.7168C109.442 33.7168 128.355 34.8729 135.818 36.8961C142.34 38.7025 146.543 42.8934 148.354 49.3964Z" fill="url(#paint0_linear_53_365)"/>
<defs>
<linearGradient id="paint0_linear_53_365" x1="6.61963" y1="33.7168" x2="101.576" y2="169.753" gradientUnits="userSpaceOnUse">
<stop stop-color="#D4B8FA"/>
<stop offset="1" stop-color="#7E5EF2"/>
</linearGradient>
</defs>
</svg>
